<svg width="290" height="86" viewBox="0 0 290 86" fill="none" xmlns="http://www.w3.org/2000/svg">
<g filter="url(#filter0_d_163_3325)">
<mask id="path-1-outside-1_163_3325" maskUnits="userSpaceOnUse" x="-0.785156" y="-0.550781" width="291" height="77" fill="black">
<rect fill="white" x="-0.785156" y="-0.550781" width="291" height="77"/>
<path fill-rule="evenodd" clip-rule="evenodd" d="M282.475 6.44922L283.502 65.2978L266.266 65.5986L242.94 39.8522L243.649 65.9933L224.828 66.3218L222.629 66.3602L200.445 66.7474L187.44 49.2303L187.75 66.969L166.838 67.3339L166.73 67.3358L144.473 67.7243L141.562 59.9542L120.038 60.3299L117.4 68.1968L95.7076 68.5754L118.222 9.31595L142.269 8.89626L166.725 67.064L165.702 8.48729L191.01 8.0456C208.415 7.74184 217.102 13.9814 217.33 27.0122C217.457 34.3262 214.117 40.5234 207.876 44.3325L222.577 63.402L221.602 7.51164L242.369 7.14919L262.095 29.006L261.455 6.81608L282.475 6.44922ZM189.689 23.8785L186.662 23.9313L186.86 35.2807L189.887 35.2279C194.343 35.1501 196.829 33.0043 196.764 29.3053C196.701 25.6903 194.145 23.8007 189.689 23.8785ZM124.807 44.4368L130.253 28.7842L136.242 44.2372L124.807 44.4368ZM97.4112 51.3062L95.6101 68.5771L52.0571 69.3372L51.0298 10.4887L94.3305 9.73293L96.7333 26.9305L71.93 27.3634L72.0195 32.4916L92.3667 32.1365L92.6147 46.3442L72.2675 46.6993L72.3556 51.7435L97.4112 51.3062ZM50.1225 69.371L49.7952 50.6236L27.9347 51.0051L27.2346 10.904L6.21484 11.2709L7.24217 70.1194L50.1225 69.371Z"/>
</mask>
<path fill-rule="evenodd" clip-rule="evenodd" d="M282.475 6.44922L283.502 65.2978L266.266 65.5986L242.94 39.8522L243.649 65.9933L224.828 66.3218L222.629 66.3602L200.445 66.7474L187.44 49.2303L187.75 66.969L166.838 67.3339L166.73 67.3358L144.473 67.7243L141.562 59.9542L120.038 60.3299L117.4 68.1968L95.7076 68.5754L118.222 9.31595L142.269 8.89626L166.725 67.064L165.702 8.48729L191.01 8.0456C208.415 7.74184 217.102 13.9814 217.33 27.0122C217.457 34.3262 214.117 40.5234 207.876 44.3325L222.577 63.402L221.602 7.51164L242.369 7.14919L262.095 29.006L261.455 6.81608L282.475 6.44922ZM189.689 23.8785L186.662 23.9313L186.86 35.2807L189.887 35.2279C194.343 35.1501 196.829 33.0043 196.764 29.3053C196.701 25.6903 194.145 23.8007 189.689 23.8785ZM124.807 44.4368L130.253 28.7842L136.242 44.2372L124.807 44.4368ZM97.4112 51.3062L95.6101 68.5771L52.0571 69.3372L51.0298 10.4887L94.3305 9.73293L96.7333 26.9305L71.93 27.3634L72.0195 32.4916L92.3667 32.1365L92.6147 46.3442L72.2675 46.6993L72.3556 51.7435L97.4112 51.3062ZM50.1225 69.371L49.7952 50.6236L27.9347 51.0051L27.2346 10.904L6.21484 11.2709L7.24217 70.1194L50.1225 69.371Z" fill="#FAF9FD" style="fill:#FAF9FD;fill:color(display-p3 0.9804 0.9765 0.9922);fill-opacity:1;"/>
<path fill-rule="evenodd" clip-rule="evenodd" d="M282.475 6.44922L283.502 65.2978L266.266 65.5986L242.94 39.8522L243.649 65.9933L224.828 66.3218L222.629 66.3602L200.445 66.7474L187.44 49.2303L187.75 66.969L166.838 67.3339L166.73 67.3358L144.473 67.7243L141.562 59.9542L120.038 60.3299L117.4 68.1968L95.7076 68.5754L118.222 9.31595L142.269 8.89626L166.725 67.064L165.702 8.48729L191.01 8.0456C208.415 7.74184 217.102 13.9814 217.33 27.0122C217.457 34.3262 214.117 40.5234 207.876 44.3325L222.577 63.402L221.602 7.51164L242.369 7.14919L262.095 29.006L261.455 6.81608L282.475 6.44922ZM189.689 23.8785L186.662 23.9313L186.86 35.2807L189.887 35.2279C194.343 35.1501 196.829 33.0043 196.764 29.3053C196.701 25.6903 194.145 23.8007 189.689 23.8785ZM124.807 44.4368L130.253 28.7842L136.242 44.2372L124.807 44.4368ZM97.4112 51.3062L95.6101 68.5771L52.0571 69.3372L51.0298 10.4887L94.3305 9.73293L96.7333 26.9305L71.93 27.3634L72.0195 32.4916L92.3667 32.1365L92.6147 46.3442L72.2675 46.6993L72.3556 51.7435L97.4112 51.3062ZM50.1225 69.371L49.7952 50.6236L27.9347 51.0051L27.2346 10.904L6.21484 11.2709L7.24217 70.1194L50.1225 69.371Z" fill="url(#paint0_linear_163_3325)" fill-opacity="0.2" style=""/>
<path d="M283.502 65.2978L283.611 71.5104C285.258 71.4816 286.827 70.7995 287.972 69.6141C289.117 68.4286 289.744 66.837 289.715 65.1893L283.502 65.2978ZM282.475 6.44922L288.688 6.34076C288.628 2.90962 285.798 0.176688 282.366 0.236572L282.475 6.44922ZM266.266 65.5986L261.661 69.7705C262.864 71.0986 264.583 71.8425 266.374 71.8112L266.266 65.5986ZM242.94 39.8522L247.545 35.6803C245.799 33.7536 243.039 33.1173 240.626 34.0855C238.213 35.0537 236.658 37.4217 236.729 40.0205L242.94 39.8522ZM243.649 65.9933L243.757 72.206C245.415 72.177 246.993 71.4865 248.139 70.288C249.285 69.0896 249.905 67.4827 249.86 65.8249L243.649 65.9933ZM224.828 66.3218L224.937 72.5345L224.937 72.5345L224.828 66.3218ZM222.629 66.3602L222.521 60.1475L222.521 60.1475L222.629 66.3602ZM200.445 66.7474L195.457 70.4514C196.652 72.0609 198.55 72.995 200.554 72.96L200.445 66.7474ZM187.44 49.2303L192.429 45.5263C190.819 43.3585 187.994 42.4782 185.438 43.3481C182.882 44.2181 181.18 46.6392 181.227 49.3388L187.44 49.2303ZM187.75 66.969L187.858 73.1816C189.506 73.1529 191.074 72.4707 192.219 71.2853C193.364 70.0999 193.991 68.5082 193.962 66.8605L187.75 66.969ZM166.838 67.3339L166.73 61.1213L166.728 61.1213L166.838 67.3339ZM166.73 67.3358L166.838 73.5485L166.84 73.5485L166.73 67.3358ZM144.473 67.7243L138.655 69.9042C139.578 72.3675 141.952 73.9828 144.582 73.9369L144.473 67.7243ZM141.562 59.9542L147.381 57.7742C146.458 55.3109 144.084 53.6957 141.454 53.7416L141.562 59.9542ZM120.038 60.3299L119.93 54.1172C117.3 54.1632 114.983 55.8603 114.147 58.3543L120.038 60.3299ZM117.4 68.1968L117.508 74.4094C120.139 74.3635 122.455 72.6664 123.291 70.1723L117.4 68.1968ZM95.7076 68.5754L89.8991 66.3685C89.1668 68.2959 89.4383 70.4611 90.6238 72.148C91.8093 73.835 93.7545 74.824 95.816 74.788L95.7076 68.5754ZM118.222 9.31595L118.114 3.1033C115.574 3.14763 113.316 4.73405 112.414 7.10909L118.222 9.31595ZM142.269 8.89626L147.997 6.48802C147.012 4.14593 144.701 2.63928 142.161 2.68361L142.269 8.89626ZM166.725 67.064L160.997 69.4722C162.151 72.2179 165.092 73.7583 168.006 73.144C170.921 72.5297 172.99 69.9336 172.938 66.9555L166.725 67.064ZM165.702 8.48729L165.594 2.27465C163.946 2.30341 162.377 2.98553 161.233 4.17097C160.088 5.35641 159.461 6.94805 159.49 8.59575L165.702 8.48729ZM191.01 8.0456L191.119 14.2582L191.01 8.0456ZM217.33 27.0122L211.117 27.1206L211.117 27.1206L217.33 27.0122ZM207.876 44.3325L204.639 39.0287C203.132 39.9484 202.087 41.4657 201.766 43.2016C201.445 44.9375 201.877 46.7282 202.955 48.1263L207.876 44.3325ZM222.577 63.402L217.656 67.1958C219.292 69.3177 222.104 70.1521 224.633 69.2659C227.161 68.3797 228.837 65.9725 228.79 63.2936L222.577 63.402ZM221.602 7.51164L221.493 1.299C219.846 1.32775 218.277 2.00988 217.132 3.19532C215.987 4.38076 215.36 5.9724 215.389 7.6201L221.602 7.51164ZM242.369 7.14919L246.982 2.98616C245.779 1.65264 244.057 0.905193 242.261 0.936539L242.369 7.14919ZM262.095 29.006L257.482 33.169C259.227 35.1021 261.992 35.7423 264.408 34.7728C266.825 33.8034 268.381 31.4298 268.306 28.8269L262.095 29.006ZM261.455 6.81608L261.347 0.603432C259.687 0.632403 258.107 1.32445 256.961 2.52522C255.815 3.72599 255.196 5.33563 255.244 6.99513L261.455 6.81608ZM186.662 23.9313L186.553 17.7187C184.906 17.7475 183.337 18.4296 182.192 19.615C181.047 20.8005 180.42 22.3921 180.449 24.0398L186.662 23.9313ZM189.689 23.8785L189.58 17.6659L189.689 23.8785ZM186.86 35.2807L180.647 35.3892C180.707 38.8203 183.537 41.5532 186.968 41.4934L186.86 35.2807ZM189.887 35.2279L189.778 29.0152L189.887 35.2279ZM196.764 29.3053L202.977 29.1968L202.977 29.1968L196.764 29.3053ZM130.253 28.7842L136.047 26.5388C135.105 24.11 132.749 22.5261 130.144 22.5716C127.54 22.617 125.24 24.2822 124.384 26.7424L130.253 28.7842ZM124.807 44.4368L118.938 42.395C118.271 44.313 118.583 46.4361 119.774 48.081C120.965 49.7259 122.885 50.6849 124.915 50.6495L124.807 44.4368ZM136.242 44.2372L136.35 50.4499C138.381 50.4144 140.266 49.389 141.399 47.7036C142.531 46.0181 142.769 43.8854 142.035 41.9919L136.242 44.2372ZM95.6101 68.5771L95.7185 74.7897C98.8588 74.7349 101.464 72.3454 101.79 69.2216L95.6101 68.5771ZM97.4112 51.3062L103.591 51.9507C103.776 50.1813 103.193 48.4176 101.991 47.1065C100.788 45.7953 99.0815 45.0625 97.3027 45.0935L97.4112 51.3062ZM52.0571 69.3372L45.8444 69.4457C45.9043 72.8768 48.7344 75.6097 52.1655 75.5498L52.0571 69.3372ZM51.0298 10.4887L50.9213 4.27601C49.2736 4.30477 47.7048 4.9869 46.5601 6.17234C45.4153 7.35777 44.7884 8.94941 44.8171 10.5971L51.0298 10.4887ZM94.3305 9.73293L100.484 8.87312C100.05 5.76261 97.3623 3.46548 94.2221 3.52028L94.3305 9.73293ZM96.7333 26.9305L96.8418 33.1431C98.6205 33.1121 100.301 32.3201 101.457 30.9678C102.612 29.6155 103.133 27.8326 102.887 26.0706L96.7333 26.9305ZM71.93 27.3634L71.8216 21.1507C70.1739 21.1795 68.6051 21.8616 67.4603 23.047C66.3156 24.2325 65.6886 25.8241 65.7174 27.4718L71.93 27.3634ZM72.0195 32.4916L65.8069 32.6C65.8668 36.0312 68.6968 38.7641 72.128 38.7042L72.0195 32.4916ZM92.3667 32.1365L98.5793 32.028C98.5194 28.5969 95.6894 25.8639 92.2582 25.9238L92.3667 32.1365ZM92.6147 46.3442L92.7231 52.5568C94.3708 52.5281 95.9396 51.8459 97.0844 50.6605C98.2291 49.4751 98.8561 47.8834 98.8273 46.2357L92.6147 46.3442ZM72.2675 46.6993L72.1591 40.4867C70.5114 40.5154 68.9426 41.1975 67.7979 42.383C66.6531 43.5684 66.0261 45.1601 66.0549 46.8078L72.2675 46.6993ZM72.3556 51.7435L66.143 51.8519C66.2029 55.2831 69.0329 58.016 72.464 57.9561L72.3556 51.7435ZM49.7952 50.6236L56.0079 50.5151C55.948 47.084 53.1179 44.351 49.6868 44.4109L49.7952 50.6236ZM50.1225 69.371L50.2309 75.5837C51.8786 75.5549 53.4474 74.8728 54.5922 73.6874C55.7369 72.5019 56.3639 70.9103 56.3351 69.2626L50.1225 69.371ZM27.9347 51.0051L21.722 51.1136C21.7819 54.5447 24.6119 57.2776 28.0431 57.2178L27.9347 51.0051ZM27.2346 10.904L33.4473 10.7956C33.3874 7.36444 30.5573 4.63151 27.1262 4.69139L27.2346 10.904ZM6.21484 11.2709L6.10641 5.05825C4.45871 5.08701 2.88992 5.76914 1.74516 6.95457C0.600396 8.14001 -0.0265663 9.73165 0.0021978 11.3794L6.21484 11.2709ZM7.24217 70.1194L1.02952 70.2279C1.08942 73.659 3.91946 76.392 7.3506 76.3321L7.24217 70.1194ZM289.715 65.1893L288.688 6.34076L276.262 6.55768L277.29 65.4062L289.715 65.1893ZM266.374 71.8112L283.611 71.5104L283.394 59.0851L266.158 59.3859L266.374 71.8112ZM238.335 44.024L261.661 69.7705L270.871 61.4267L247.545 35.6803L238.335 44.024ZM249.86 65.8249L249.151 39.6838L236.729 40.0205L237.437 66.1617L249.86 65.8249ZM224.937 72.5345L243.757 72.206L243.54 59.7807L224.72 60.1092L224.937 72.5345ZM222.737 72.5728L224.937 72.5345L224.72 60.1092L222.521 60.1475L222.737 72.5728ZM200.554 72.96L222.737 72.5728L222.521 60.1475L200.337 60.5347L200.554 72.96ZM182.451 52.9344L195.457 70.4514L205.434 63.0434L192.429 45.5263L182.451 52.9344ZM193.962 66.8605L193.652 49.1219L181.227 49.3388L181.537 67.0774L193.962 66.8605ZM166.947 73.5466L187.858 73.1816L187.641 60.7563L166.73 61.1213L166.947 73.5466ZM166.84 73.5485L166.949 73.5465L166.728 61.1213L166.62 61.1232L166.84 73.5485ZM144.582 73.9369L166.838 73.5485L166.621 61.1232L144.365 61.5116L144.582 73.9369ZM135.744 62.1342L138.655 69.9042L150.292 65.5443L147.381 57.7742L135.744 62.1342ZM120.147 66.5425L141.671 66.1669L141.454 53.7416L119.93 54.1172L120.147 66.5425ZM123.291 70.1723L125.929 62.3055L114.147 58.3543L111.509 66.2212L123.291 70.1723ZM95.816 74.788L117.508 74.4094L117.292 61.9841L95.5992 62.3627L95.816 74.788ZM112.414 7.10909L89.8991 66.3685L101.516 70.7822L124.031 11.5228L112.414 7.10909ZM142.161 2.68361L118.114 3.1033L118.331 15.5286L142.377 15.1089L142.161 2.68361ZM172.453 64.6557L147.997 6.48802L136.541 11.3045L160.997 69.4722L172.453 64.6557ZM159.49 8.59575L160.512 67.1724L172.938 66.9555L171.915 8.37884L159.49 8.59575ZM190.902 1.83295L165.594 2.27465L165.811 14.6999L191.119 14.2582L190.902 1.83295ZM223.542 26.9037C223.402 18.8948 220.552 12.0297 214.242 7.48598C208.287 3.19842 200.176 1.67109 190.902 1.83295L191.119 14.2582C199.249 14.1163 204.183 15.5569 206.981 17.5709C209.422 19.3288 211.029 22.0988 211.117 27.1206L223.542 26.9037ZM211.113 49.6364C219.272 44.6568 223.708 36.3793 223.542 26.9037L211.117 27.1206C211.207 32.2731 208.962 36.3901 204.639 39.0287L211.113 49.6364ZM227.498 59.6082L212.797 40.5388L202.955 48.1263L217.656 67.1958L227.498 59.6082ZM215.389 7.6201L216.365 63.5105L228.79 63.2936L227.814 7.40319L215.389 7.6201ZM242.261 0.936539L221.493 1.299L221.71 13.7243L242.478 13.3618L242.261 0.936539ZM266.708 24.843L246.982 2.98616L237.756 11.3122L257.482 33.169L266.708 24.843ZM255.244 6.99513L255.884 29.185L268.306 28.8269L267.666 6.63703L255.244 6.99513ZM282.366 0.236572L261.347 0.603432L261.564 13.0287L282.583 12.6619L282.366 0.236572ZM186.77 30.144L189.797 30.0912L189.58 17.6659L186.553 17.7187L186.77 30.144ZM193.073 35.1722L192.874 23.8229L180.449 24.0398L180.647 35.3892L193.073 35.1722ZM189.778 29.0152L186.751 29.0681L186.968 41.4934L189.995 41.4405L189.778 29.0152ZM190.551 29.4138C190.555 29.6329 190.518 29.6096 190.587 29.4414C190.663 29.253 190.801 29.0581 190.965 28.9175C191.112 28.7908 191.164 28.8066 190.987 28.8622C190.801 28.9207 190.417 29.0041 189.778 29.0152L189.995 41.4405C193.105 41.3863 196.441 40.6031 199.077 38.3316C201.88 35.9161 203.035 32.559 202.977 29.1968L190.551 29.4138ZM189.797 30.0912C190.477 30.0793 190.9 30.1472 191.12 30.2036C191.332 30.2581 191.283 30.2825 191.115 30.155C190.924 30.0101 190.739 29.7882 190.624 29.5409C190.519 29.3158 190.548 29.2329 190.551 29.4138L202.977 29.1968C202.918 25.8105 201.594 22.509 198.632 20.2592C195.908 18.19 192.582 17.6135 189.58 17.6659L189.797 30.0912ZM124.384 26.7424L118.938 42.395L130.675 46.4786L136.121 30.826L124.384 26.7424ZM142.035 41.9919L136.047 26.5388L124.459 31.0296L130.448 46.4826L142.035 41.9919ZM124.915 50.6495L136.35 50.4499L136.133 38.0246L124.699 38.2242L124.915 50.6495ZM101.79 69.2216L103.591 51.9507L91.2311 50.6617L89.43 67.9326L101.79 69.2216ZM52.1655 75.5498L95.7185 74.7897L95.5016 62.3644L51.9487 63.1245L52.1655 75.5498ZM44.8171 10.5971L45.8444 69.4457L58.2697 69.2287L57.2424 10.3802L44.8171 10.5971ZM94.2221 3.52028L50.9213 4.27601L51.1382 16.7013L94.4389 15.9456L94.2221 3.52028ZM102.887 26.0706L100.484 8.87312L88.1767 10.5927L90.5795 27.7903L102.887 26.0706ZM72.0384 33.576L96.8418 33.1431L96.6249 20.7178L71.8216 21.1507L72.0384 33.576ZM78.2322 32.3831L78.1426 27.2549L65.7174 27.4718L65.8069 32.6L78.2322 32.3831ZM92.2582 25.9238L71.9111 26.2789L72.128 38.7042L92.4751 38.3491L92.2582 25.9238ZM98.8273 46.2357L98.5793 32.028L86.154 32.2449L86.402 46.4526L98.8273 46.2357ZM72.376 52.9119L92.7231 52.5568L92.5063 40.1315L72.1591 40.4867L72.376 52.9119ZM78.5683 51.635L78.4802 46.5908L66.0549 46.8078L66.143 51.8519L78.5683 51.635ZM97.3027 45.0935L72.2472 45.5308L72.464 57.9561L97.5196 57.5188L97.3027 45.0935ZM43.5826 50.732L43.9098 69.4795L56.3351 69.2626L56.0079 50.5151L43.5826 50.732ZM28.0431 57.2178L49.9036 56.8362L49.6868 44.4109L27.8262 44.7925L28.0431 57.2178ZM21.022 11.0125L21.722 51.1136L34.1473 50.8967L33.4473 10.7956L21.022 11.0125ZM6.32327 17.4835L27.343 17.1167L27.1262 4.69139L6.10641 5.05825L6.32327 17.4835ZM13.4548 70.011L12.4275 11.1624L0.0021978 11.3794L1.02952 70.2279L13.4548 70.011ZM50.0141 63.1584L7.13374 63.9068L7.3506 76.3321L50.2309 75.5837L50.0141 63.1584Z" fill="#3B1B89" style="fill:#3B1B89;fill:color(display-p3 0.2314 0.1059 0.5373);fill-opacity:1;" mask="url(#path-1-outside-1_163_3325)"/>
</g>
<mask id="path-3-outside-2_163_3325" maskUnits="userSpaceOnUse" x="180.067" y="66.7278" width="106" height="19" fill="black">
<rect fill="white" x="180.067" y="66.7278" width="106" height="19"/>
<path fill-rule="evenodd" clip-rule="evenodd" d="M282.715 69.7278L282.908 80.8052L279.664 80.8618L275.273 76.0154L275.407 80.9361L271.45 81.0051L271.256 69.9278L275.166 69.8595L278.879 73.9738L278.758 69.7968L282.715 69.7278ZM264.99 81.3395C263.233 81.3701 261.783 80.8414 260.624 79.7694C259.466 78.6973 258.872 77.3463 258.844 75.7006C258.815 74.0706 259.377 72.6836 260.513 71.5557C261.649 70.4278 263.079 69.8488 264.82 69.8184C266.561 69.7881 268.011 70.3168 269.185 71.3885C270.344 72.4606 270.938 73.8274 270.966 75.4573C270.995 77.1031 270.449 78.4898 269.313 79.6019C268.177 80.7298 266.746 81.3088 264.99 81.3395ZM264.85 73.3479C263.663 73.3686 262.857 74.3167 262.879 75.5985C262.901 76.8803 263.757 77.831 264.96 77.81C266.147 77.7893 266.953 76.8412 266.931 75.5594C266.909 74.2776 266.037 73.3272 264.85 73.3479ZM250.985 75.9326C251.517 76.4774 252.427 76.9364 253.716 77.2938C254.877 77.606 255.133 77.744 255.137 78.013C255.142 78.282 254.891 78.413 254.369 78.4222C253.846 78.4313 253.195 78.3002 252.414 78.013C251.633 77.7259 250.899 77.3746 250.243 76.9587L250.196 76.9912L250.622 80.5454C251.63 81.161 253.077 81.5157 254.486 81.4911C257.334 81.4413 259.051 80.0026 259.011 77.708C258.994 76.7743 258.728 76.0349 258.196 75.4902C257.664 74.9454 256.722 74.5028 255.371 74.1465C254.337 73.8638 254.033 73.7108 254.029 73.4576C254.025 73.2202 254.228 73.1059 254.671 73.0981C255.146 73.0898 255.734 73.1746 256.433 73.3681C257.118 73.562 257.723 73.8047 258.251 74.0804L258.282 74.0799L258.224 70.7408C257.218 70.2677 255.947 70.0049 254.618 70.0281C253.241 70.0521 252.139 70.4038 251.343 71.0825C250.532 71.7774 250.136 72.6707 250.156 73.7785C250.171 74.6805 250.453 75.3879 250.985 75.9326ZM243.802 74.1111L242.777 77.0574L244.929 77.0199L243.802 74.1111ZM246.064 70.3675L250.689 81.3675L246.479 81.441L245.931 79.9784L241.879 80.0491L241.383 81.5299L237.299 81.6012L241.537 70.4465L246.064 70.3675ZM234.061 76.8613C234.076 77.7 233.501 78.2958 232.63 78.311C231.918 78.3234 231.297 78.1443 230.546 77.7141L230.499 77.7466L230.955 81.2054C231.833 81.6174 232.723 81.8077 233.783 81.7892C235.113 81.766 236.167 81.3835 236.929 80.642C237.692 79.9006 238.055 78.897 238.033 77.6468L237.908 70.5098L233.952 70.5789L234.061 76.8613ZM227.442 70.6925L227.635 81.7699L223.678 81.8389L223.613 78.0726L220.352 78.1295L220.418 81.8958L216.461 81.9649L216.268 70.8875L220.225 70.8184L220.289 74.5214L223.55 74.4645L223.485 70.7615L227.442 70.6925ZM215.822 70.8952L204.996 71.0842L205.058 74.6131L208.492 74.5532L208.624 82.1016L212.581 82.0326L212.449 74.4841L215.883 74.4242L215.822 70.8952ZM204.529 71.0923L204.722 82.1696L200.766 82.2387L200.572 71.1613L204.529 71.0923ZM190.051 82.5049L191.808 78.8651L193.676 82.4416L197.332 82.3778L200.27 71.1666L196.171 71.2382L194.879 77.0385L191.832 71.1714L191.627 71.175L188.77 77.1452L187.277 71.3934L183.067 71.4669L186.395 82.5687L190.051 82.5049Z"/>
</mask>
<path fill-rule="evenodd" clip-rule="evenodd" d="M282.715 69.7278L282.908 80.8052L279.664 80.8618L275.273 76.0154L275.407 80.9361L271.45 81.0051L271.256 69.9278L275.166 69.8595L278.879 73.9738L278.758 69.7968L282.715 69.7278ZM264.99 81.3395C263.233 81.3701 261.783 80.8414 260.624 79.7694C259.466 78.6973 258.872 77.3463 258.844 75.7006C258.815 74.0706 259.377 72.6836 260.513 71.5557C261.649 70.4278 263.079 69.8488 264.82 69.8184C266.561 69.7881 268.011 70.3168 269.185 71.3885C270.344 72.4606 270.938 73.8274 270.966 75.4573C270.995 77.1031 270.449 78.4898 269.313 79.6019C268.177 80.7298 266.746 81.3088 264.99 81.3395ZM264.85 73.3479C263.663 73.3686 262.857 74.3167 262.879 75.5985C262.901 76.8803 263.757 77.831 264.96 77.81C266.147 77.7893 266.953 76.8412 266.931 75.5594C266.909 74.2776 266.037 73.3272 264.85 73.3479ZM250.985 75.9326C251.517 76.4774 252.427 76.9364 253.716 77.2938C254.877 77.606 255.133 77.744 255.137 78.013C255.142 78.282 254.891 78.413 254.369 78.4222C253.846 78.4313 253.195 78.3002 252.414 78.013C251.633 77.7259 250.899 77.3746 250.243 76.9587L250.196 76.9912L250.622 80.5454C251.63 81.161 253.077 81.5157 254.486 81.4911C257.334 81.4413 259.051 80.0026 259.011 77.708C258.994 76.7743 258.728 76.0349 258.196 75.4902C257.664 74.9454 256.722 74.5028 255.371 74.1465C254.337 73.8638 254.033 73.7108 254.029 73.4576C254.025 73.2202 254.228 73.1059 254.671 73.0981C255.146 73.0898 255.734 73.1746 256.433 73.3681C257.118 73.562 257.723 73.8047 258.251 74.0804L258.282 74.0799L258.224 70.7408C257.218 70.2677 255.947 70.0049 254.618 70.0281C253.241 70.0521 252.139 70.4038 251.343 71.0825C250.532 71.7774 250.136 72.6707 250.156 73.7785C250.171 74.6805 250.453 75.3879 250.985 75.9326ZM243.802 74.1111L242.777 77.0574L244.929 77.0199L243.802 74.1111ZM246.064 70.3675L250.689 81.3675L246.479 81.441L245.931 79.9784L241.879 80.0491L241.383 81.5299L237.299 81.6012L241.537 70.4465L246.064 70.3675ZM234.061 76.8613C234.076 77.7 233.501 78.2958 232.63 78.311C231.918 78.3234 231.297 78.1443 230.546 77.7141L230.499 77.7466L230.955 81.2054C231.833 81.6174 232.723 81.8077 233.783 81.7892C235.113 81.766 236.167 81.3835 236.929 80.642C237.692 79.9006 238.055 78.897 238.033 77.6468L237.908 70.5098L233.952 70.5789L234.061 76.8613ZM227.442 70.6925L227.635 81.7699L223.678 81.8389L223.613 78.0726L220.352 78.1295L220.418 81.8958L216.461 81.9649L216.268 70.8875L220.225 70.8184L220.289 74.5214L223.55 74.4645L223.485 70.7615L227.442 70.6925ZM215.822 70.8952L204.996 71.0842L205.058 74.6131L208.492 74.5532L208.624 82.1016L212.581 82.0326L212.449 74.4841L215.883 74.4242L215.822 70.8952ZM204.529 71.0923L204.722 82.1696L200.766 82.2387L200.572 71.1613L204.529 71.0923ZM190.051 82.5049L191.808 78.8651L193.676 82.4416L197.332 82.3778L200.27 71.1666L196.171 71.2382L194.879 77.0385L191.832 71.1714L191.627 71.175L188.77 77.1452L187.277 71.3934L183.067 71.4669L186.395 82.5687L190.051 82.5049Z" fill="#FAF9FD" style="fill:#FAF9FD;fill:color(display-p3 0.9804 0.9765 0.9922);fill-opacity:1;"/>
<path fill-rule="evenodd" clip-rule="evenodd" d="M282.715 69.7278L282.908 80.8052L279.664 80.8618L275.273 76.0154L275.407 80.9361L271.45 81.0051L271.256 69.9278L275.166 69.8595L278.879 73.9738L278.758 69.7968L282.715 69.7278ZM264.99 81.3395C263.233 81.3701 261.783 80.8414 260.624 79.7694C259.466 78.6973 258.872 77.3463 258.844 75.7006C258.815 74.0706 259.377 72.6836 260.513 71.5557C261.649 70.4278 263.079 69.8488 264.82 69.8184C266.561 69.7881 268.011 70.3168 269.185 71.3885C270.344 72.4606 270.938 73.8274 270.966 75.4573C270.995 77.1031 270.449 78.4898 269.313 79.6019C268.177 80.7298 266.746 81.3088 264.99 81.3395ZM264.85 73.3479C263.663 73.3686 262.857 74.3167 262.879 75.5985C262.901 76.8803 263.757 77.831 264.96 77.81C266.147 77.7893 266.953 76.8412 266.931 75.5594C266.909 74.2776 266.037 73.3272 264.85 73.3479ZM250.985 75.9326C251.517 76.4774 252.427 76.9364 253.716 77.2938C254.877 77.606 255.133 77.744 255.137 78.013C255.142 78.282 254.891 78.413 254.369 78.4222C253.846 78.4313 253.195 78.3002 252.414 78.013C251.633 77.7259 250.899 77.3746 250.243 76.9587L250.196 76.9912L250.622 80.5454C251.63 81.161 253.077 81.5157 254.486 81.4911C257.334 81.4413 259.051 80.0026 259.011 77.708C258.994 76.7743 258.728 76.0349 258.196 75.4902C257.664 74.9454 256.722 74.5028 255.371 74.1465C254.337 73.8638 254.033 73.7108 254.029 73.4576C254.025 73.2202 254.228 73.1059 254.671 73.0981C255.146 73.0898 255.734 73.1746 256.433 73.3681C257.118 73.562 257.723 73.8047 258.251 74.0804L258.282 74.0799L258.224 70.7408C257.218 70.2677 255.947 70.0049 254.618 70.0281C253.241 70.0521 252.139 70.4038 251.343 71.0825C250.532 71.7774 250.136 72.6707 250.156 73.7785C250.171 74.6805 250.453 75.3879 250.985 75.9326ZM243.802 74.1111L242.777 77.0574L244.929 77.0199L243.802 74.1111ZM246.064 70.3675L250.689 81.3675L246.479 81.441L245.931 79.9784L241.879 80.0491L241.383 81.5299L237.299 81.6012L241.537 70.4465L246.064 70.3675ZM234.061 76.8613C234.076 77.7 233.501 78.2958 232.63 78.311C231.918 78.3234 231.297 78.1443 230.546 77.7141L230.499 77.7466L230.955 81.2054C231.833 81.6174 232.723 81.8077 233.783 81.7892C235.113 81.766 236.167 81.3835 236.929 80.642C237.692 79.9006 238.055 78.897 238.033 77.6468L237.908 70.5098L233.952 70.5789L234.061 76.8613ZM227.442 70.6925L227.635 81.7699L223.678 81.8389L223.613 78.0726L220.352 78.1295L220.418 81.8958L216.461 81.9649L216.268 70.8875L220.225 70.8184L220.289 74.5214L223.55 74.4645L223.485 70.7615L227.442 70.6925ZM215.822 70.8952L204.996 71.0842L205.058 74.6131L208.492 74.5532L208.624 82.1016L212.581 82.0326L212.449 74.4841L215.883 74.4242L215.822 70.8952ZM204.529 71.0923L204.722 82.1696L200.766 82.2387L200.572 71.1613L204.529 71.0923ZM190.051 82.5049L191.808 78.8651L193.676 82.4416L197.332 82.3778L200.27 71.1666L196.171 71.2382L194.879 77.0385L191.832 71.1714L191.627 71.175L188.77 77.1452L187.277 71.3934L183.067 71.4669L186.395 82.5687L190.051 82.5049Z" fill="url(#paint1_linear_163_3325)" fill-opacity="0.2" style=""/>
<path d="M282.908 80.8052L282.952 83.2902C283.611 83.2787 284.238 83.0059 284.696 82.5317C285.154 82.0575 285.405 81.4209 285.393 80.7618L282.908 80.8052ZM282.715 69.7278L285.2 69.6844C285.176 68.3119 284.044 67.2188 282.672 67.2427L282.715 69.7278ZM279.664 80.8618L277.822 82.5305C278.303 83.0618 278.99 83.3593 279.707 83.3468L279.664 80.8618ZM275.273 76.0154L277.115 74.3466C276.417 73.576 275.313 73.3215 274.348 73.7087C273.382 74.096 272.76 75.0432 272.789 76.0827L275.273 76.0154ZM275.407 80.9361L275.45 83.4211C276.113 83.4096 276.744 83.1333 277.203 82.654C277.661 82.1746 277.909 81.5318 277.891 80.8687L275.407 80.9361ZM271.45 81.0051L268.965 81.0485C268.989 82.421 270.121 83.5142 271.493 83.4902L271.45 81.0051ZM271.256 69.9278L271.213 67.4427C270.554 67.4542 269.926 67.7271 269.469 68.2012C269.011 68.6754 268.76 69.3121 268.771 69.9711L271.256 69.9278ZM275.166 69.8595L277.011 68.1943C276.529 67.6609 275.841 67.3619 275.122 67.3745L275.166 69.8595ZM278.879 73.9738L277.034 75.639C277.731 76.4122 278.837 76.6683 279.804 76.2805C280.771 75.8927 281.393 74.9433 281.363 73.9021L278.879 73.9738ZM278.758 69.7968L278.715 67.3118C278.051 67.3234 277.419 67.6002 276.961 68.0805C276.502 68.5608 276.255 69.2047 276.274 69.8685L278.758 69.7968ZM260.624 79.7694L258.936 81.5936L258.936 81.5937L260.624 79.7694ZM264.99 81.3395L264.946 78.8544L264.946 78.8544L264.99 81.3395ZM258.844 75.7006L261.329 75.6572L261.329 75.6572L258.844 75.7006ZM260.513 71.5557L262.264 73.3195L262.264 73.3195L260.513 71.5557ZM269.185 71.3885L270.873 69.5642C270.869 69.5604 270.865 69.5565 270.861 69.5527L269.185 71.3885ZM270.966 75.4573L273.451 75.4139L273.451 75.4139L270.966 75.4573ZM269.313 79.6019L267.575 77.8256C267.57 77.8298 267.566 77.8339 267.562 77.8381L269.313 79.6019ZM262.879 75.5985L260.394 75.6418L260.394 75.6419L262.879 75.5985ZM264.85 73.3479L264.894 75.833L264.894 75.833L264.85 73.3479ZM264.96 77.81L264.916 75.3249L264.916 75.3249L264.96 77.81ZM266.931 75.5594L264.446 75.6028L264.446 75.6028L266.931 75.5594ZM253.716 77.2938L253.051 79.6888C253.058 79.6906 253.064 79.6923 253.07 79.694L253.716 77.2938ZM250.985 75.9326L252.763 74.1962L252.763 74.1962L250.985 75.9326ZM255.137 78.013L257.622 77.9697L257.622 77.9696L255.137 78.013ZM254.369 78.4222L254.412 80.9072L254.412 80.9072L254.369 78.4222ZM252.414 78.013L251.556 80.3457L251.556 80.3457L252.414 78.013ZM250.243 76.9587L251.573 74.8593C250.73 74.325 249.649 74.3469 248.828 74.9151L250.243 76.9587ZM250.196 76.9912L248.781 74.9476C248.024 75.4719 247.618 76.3723 247.728 77.2871L250.196 76.9912ZM250.622 80.5454L248.154 80.8413C248.245 81.5972 248.677 82.2699 249.327 82.6666L250.622 80.5454ZM254.486 81.4911L254.442 79.006L254.442 79.006L254.486 81.4911ZM259.011 77.708L261.496 77.6646L261.496 77.6645L259.011 77.708ZM258.196 75.4902L259.974 73.7538L259.974 73.7537L258.196 75.4902ZM255.371 74.1465L254.715 76.5439C254.722 76.5459 254.73 76.5479 254.737 76.5499L255.371 74.1465ZM254.029 73.4576L251.544 73.5009L251.544 73.501L254.029 73.4576ZM254.671 73.0981L254.715 75.5832L254.715 75.5832L254.671 73.0981ZM256.433 73.3681L257.111 70.9768C257.106 70.9754 257.101 70.974 257.096 70.9726L256.433 73.3681ZM258.251 74.0804L257.099 76.2829C257.467 76.4755 257.878 76.5727 258.294 76.5655L258.251 74.0804ZM258.282 74.0799L258.326 76.5649C258.985 76.5534 259.612 76.2806 260.07 75.8064C260.528 75.3322 260.779 74.6956 260.767 74.0365L258.282 74.0799ZM258.224 70.7408L260.709 70.6974C260.693 69.7504 260.139 68.8951 259.282 68.4919L258.224 70.7408ZM254.618 70.0281L254.661 72.5132L254.661 72.5132L254.618 70.0281ZM251.343 71.0825L249.73 69.1917L249.726 69.195L251.343 71.0825ZM250.156 73.7785L247.67 73.8218L247.67 73.8218L250.156 73.7785ZM242.777 77.0574L240.429 76.2407C240.163 77.0079 240.287 77.8572 240.764 78.5151C241.24 79.1731 242.008 79.5567 242.82 79.5425L242.777 77.0574ZM243.802 74.1111L246.119 73.2129C245.743 72.2414 244.8 71.6078 243.759 71.626C242.717 71.6442 241.797 72.3103 241.455 73.2944L243.802 74.1111ZM244.929 77.0199L244.973 79.5049C245.785 79.4908 246.539 79.0806 246.992 78.4064C247.445 77.7322 247.54 76.8791 247.247 76.1217L244.929 77.0199ZM250.689 81.3675L250.732 83.8525C251.557 83.8381 252.32 83.4156 252.771 82.7247C253.221 82.0338 253.3 81.1645 252.98 80.4042L250.689 81.3675ZM246.064 70.3675L248.355 69.4042C247.961 68.4673 247.037 67.8647 246.02 67.8824L246.064 70.3675ZM246.479 81.441L244.151 82.313C244.521 83.2983 245.47 83.9444 246.522 83.926L246.479 81.441ZM245.931 79.9784L248.258 79.1064C247.889 78.121 246.94 77.4749 245.887 77.4933L245.931 79.9784ZM241.879 80.0491L241.836 77.564C240.784 77.5824 239.857 78.2612 239.523 79.2588L241.879 80.0491ZM241.383 81.5299L241.426 84.015C242.478 83.9966 243.405 83.3177 243.739 82.3201L241.383 81.5299ZM237.299 81.6012L234.976 80.7184C234.683 81.4894 234.792 82.3555 235.266 83.0302C235.74 83.705 236.518 84.1006 237.343 84.0862L237.299 81.6012ZM241.537 70.4465L241.494 67.9614C240.478 67.9791 239.575 68.6137 239.214 69.5637L241.537 70.4465ZM232.63 78.311L232.673 80.796L232.673 80.796L232.63 78.311ZM234.061 76.8613L236.546 76.8179L236.546 76.8179L234.061 76.8613ZM230.546 77.7141L231.78 75.557C230.949 75.0814 229.919 75.1255 229.131 75.6704L230.546 77.7141ZM230.499 77.7466L229.084 75.7029C228.318 76.2332 227.913 77.1477 228.035 78.0716L230.499 77.7466ZM230.955 81.2054L228.491 81.5303C228.602 82.37 229.132 83.0954 229.899 83.4553L230.955 81.2054ZM233.783 81.7892L233.827 84.2742L233.827 84.2742L233.783 81.7892ZM236.929 80.642L235.197 78.8598L235.197 78.8598L236.929 80.642ZM238.033 77.6468L240.518 77.6034L240.518 77.6034L238.033 77.6468ZM237.908 70.5098L240.393 70.4664C240.369 69.094 239.237 68.0008 237.865 68.0247L237.908 70.5098ZM233.952 70.5789L233.908 68.0938C233.249 68.1053 232.622 68.3782 232.164 68.8523C231.706 69.3265 231.455 69.9632 231.467 70.6222L233.952 70.5789ZM227.635 81.7699L227.678 84.2549C228.337 84.2434 228.965 83.9706 229.423 83.4964C229.881 83.0222 230.132 82.3856 230.12 81.7265L227.635 81.7699ZM227.442 70.6925L229.927 70.6491C229.903 69.2766 228.771 68.1835 227.398 68.2074L227.442 70.6925ZM223.678 81.8389L221.193 81.8823C221.217 83.2547 222.349 84.3479 223.722 84.324L223.678 81.8389ZM223.613 78.0726L226.098 78.0292C226.074 76.6568 224.942 75.5636 223.569 75.5875L223.613 78.0726ZM220.352 78.1295L220.309 75.6444C219.65 75.6559 219.022 75.9288 218.564 76.403C218.107 76.8771 217.856 77.5138 217.867 78.1729L220.352 78.1295ZM220.418 81.8958L220.461 84.3809C221.12 84.3694 221.748 84.0965 222.206 83.6223C222.664 83.1482 222.915 82.5115 222.903 81.8524L220.418 81.8958ZM216.461 81.9649L213.976 82.0082C214 83.3807 215.132 84.4739 216.505 84.4499L216.461 81.9649ZM216.268 70.8875L216.225 68.4024C215.566 68.4139 214.938 68.6868 214.48 69.161C214.022 69.6351 213.771 70.2718 213.783 70.9309L216.268 70.8875ZM220.225 70.8184L222.71 70.7751C222.686 69.4026 221.554 68.3094 220.181 68.3334L220.225 70.8184ZM220.289 74.5214L217.804 74.5648C217.828 75.9373 218.96 77.0305 220.333 77.0065L220.289 74.5214ZM223.55 74.4645L223.593 76.9496C224.252 76.9381 224.88 76.6652 225.337 76.1911C225.795 75.7169 226.046 75.0802 226.035 74.4212L223.55 74.4645ZM223.485 70.7615L223.442 68.2765C222.782 68.288 222.155 68.5608 221.697 69.035C221.239 69.5092 220.988 70.1458 221 70.8049L223.485 70.7615ZM204.996 71.0842L204.953 68.5991C204.294 68.6106 203.666 68.8835 203.209 69.3576C202.751 69.8318 202.5 70.4685 202.511 71.1276L204.996 71.0842ZM215.822 70.8952L218.307 70.8519C218.283 69.4794 217.151 68.3862 215.779 68.4102L215.822 70.8952ZM205.058 74.6131L202.573 74.6565C202.597 76.0289 203.729 77.1221 205.101 77.0982L205.058 74.6131ZM208.492 74.5532L210.977 74.5098C210.954 73.1373 209.822 72.0442 208.449 72.0681L208.492 74.5532ZM208.624 82.1016L206.139 82.145C206.163 83.5174 207.295 84.6106 208.668 84.5867L208.624 82.1016ZM212.581 82.0326L212.624 84.5176C213.283 84.5061 213.911 84.2333 214.369 83.7591C214.827 83.2849 215.077 82.6482 215.066 81.9892L212.581 82.0326ZM212.449 74.4841L212.406 71.9991C211.747 72.0106 211.119 72.2834 210.661 72.7576C210.203 73.2318 209.953 73.8684 209.964 74.5275L212.449 74.4841ZM215.883 74.4242L215.927 76.9092C216.586 76.8977 217.213 76.6249 217.671 76.1507C218.129 75.6765 218.38 75.0399 218.369 74.3808L215.883 74.4242ZM204.722 82.1696L204.766 84.6547C205.425 84.6432 206.052 84.3703 206.51 83.8962C206.968 83.422 207.219 82.7853 207.207 82.1262L204.722 82.1696ZM204.529 71.0923L207.014 71.0489C206.99 69.6764 205.858 68.5832 204.486 68.6072L204.529 71.0923ZM200.766 82.2387L198.281 82.2821C198.305 83.6545 199.437 84.7477 200.809 84.7237L200.766 82.2387ZM200.572 71.1613L200.529 68.6763C199.87 68.6878 199.242 68.9606 198.784 69.4348C198.327 69.909 198.076 70.5456 198.087 71.2047L200.572 71.1613ZM191.808 78.8651L194.012 77.7148C193.577 76.8817 192.709 76.3652 191.769 76.3799C190.83 76.3947 189.979 76.9382 189.57 77.7846L191.808 78.8651ZM190.051 82.5049L190.095 84.9899C191.033 84.9736 191.882 84.4303 192.29 83.5854L190.051 82.5049ZM193.676 82.4416L191.472 83.5919C191.908 84.4264 192.778 84.9431 193.719 84.9267L193.676 82.4416ZM197.332 82.3778L197.375 84.8629C198.489 84.8434 199.453 84.0855 199.736 83.0081L197.332 82.3778ZM200.27 71.1666L202.675 71.7969C202.872 71.0443 202.705 70.2429 202.225 69.6311C201.744 69.0194 201.005 68.668 200.227 68.6816L200.27 71.1666ZM196.171 71.2382L196.128 68.7531C194.98 68.7732 193.995 69.577 193.745 70.6978L196.171 71.2382ZM194.879 77.0385L192.674 78.1841C193.155 79.1113 194.165 79.6384 195.201 79.503C196.238 79.3677 197.078 78.5987 197.305 77.5789L194.879 77.0385ZM191.832 71.1714L194.038 70.0259C193.603 69.1888 192.732 68.6699 191.789 68.6864L191.832 71.1714ZM191.627 71.175L191.583 68.69C190.642 68.7064 189.791 69.2532 189.385 70.1024L191.627 71.175ZM188.77 77.1452L186.365 77.7698C186.627 78.7802 187.493 79.519 188.532 79.6191C189.571 79.7193 190.562 79.1595 191.012 78.2178L188.77 77.1452ZM187.277 71.3934L189.682 70.7687C189.394 69.6573 188.381 68.8883 187.233 68.9084L187.277 71.3934ZM183.067 71.4669L183.024 68.9818C182.246 68.9954 181.519 69.3724 181.06 70.0005C180.601 70.6287 180.463 71.4355 180.686 72.1807L183.067 71.4669ZM186.395 82.5687L184.015 83.2825C184.334 84.3494 185.325 85.0732 186.439 85.0537L186.395 82.5687ZM285.393 80.7618L285.2 69.6844L280.23 69.7712L280.423 80.8485L285.393 80.7618ZM279.707 83.3468L282.952 83.2902L282.865 78.3201L279.621 78.3767L279.707 83.3468ZM273.431 77.6841L277.822 82.5305L281.506 79.193L277.115 74.3466L273.431 77.6841ZM277.891 80.8687L277.758 75.948L272.789 76.0827L272.922 81.0034L277.891 80.8687ZM271.493 83.4902L275.45 83.4211L275.363 78.451L271.406 78.5201L271.493 83.4902ZM268.771 69.9711L268.965 81.0485L273.935 80.9618L273.742 69.8844L268.771 69.9711ZM275.122 67.3745L271.213 67.4427L271.3 72.4128L275.209 72.3446L275.122 67.3745ZM280.724 72.3086L277.011 68.1943L273.321 71.5248L277.034 75.639L280.724 72.3086ZM276.274 69.8685L276.394 74.0454L281.363 73.9021L281.243 69.7252L276.274 69.8685ZM282.672 67.2427L278.715 67.3118L278.802 72.2819L282.758 72.2128L282.672 67.2427ZM258.936 81.5937C260.612 83.1441 262.702 83.8652 265.033 83.8245L264.946 78.8544C263.764 78.875 262.954 78.5387 262.312 77.9451L258.936 81.5937ZM256.359 75.744C256.399 78.0384 257.26 80.0423 258.936 81.5936L262.312 77.9451C261.672 77.3524 261.346 76.6543 261.329 75.6572L256.359 75.744ZM258.762 69.792C257.139 71.4033 256.318 73.4457 256.359 75.744L261.329 75.6572C261.312 74.6955 261.615 73.9639 262.264 73.3195L258.762 69.792ZM264.777 67.3334C262.453 67.3739 260.392 68.173 258.762 69.792L262.264 73.3195C262.905 72.6826 263.706 72.3237 264.864 72.3035L264.777 67.3334ZM270.861 69.5527C269.179 68.0181 267.099 67.2929 264.777 67.3334L264.864 72.3035C266.023 72.2833 266.843 72.6155 267.51 73.2244L270.861 69.5527ZM273.451 75.4139C273.412 73.1391 272.553 71.1181 270.873 69.5642L267.497 73.2128C268.135 73.803 268.464 74.5157 268.481 75.5007L273.451 75.4139ZM271.051 81.3782C272.704 79.7607 273.491 77.7031 273.451 75.4139L268.481 75.5007C268.499 76.5031 268.194 77.2189 267.575 77.8256L271.051 81.3782ZM265.033 83.8245C267.369 83.7837 269.431 82.9868 271.064 81.3656L267.562 77.8381C266.923 78.4728 266.124 78.8339 264.946 78.8544L265.033 83.8245ZM265.364 75.5551C265.362 75.4436 265.395 75.5065 265.288 75.6301C265.235 75.69 265.164 75.7457 265.08 75.7846C264.996 75.8236 264.927 75.8324 264.894 75.833L264.807 70.8629C262.007 70.9117 260.352 73.2414 260.394 75.6418L265.364 75.5551ZM264.916 75.3249C264.953 75.3243 265.021 75.3315 265.103 75.3664C265.184 75.4008 265.25 75.4504 265.298 75.5015C265.395 75.6057 265.366 75.6567 265.364 75.5551L260.394 75.6419C260.436 78.0342 262.18 80.3443 265.003 80.295L264.916 75.3249ZM264.446 75.6028C264.448 75.7143 264.415 75.6514 264.522 75.5278C264.574 75.4679 264.646 75.4122 264.73 75.3733C264.814 75.3343 264.883 75.3255 264.916 75.3249L265.003 80.295C267.803 80.2462 269.458 77.9165 269.416 75.516L264.446 75.6028ZM264.894 75.833C264.849 75.8338 264.778 75.8248 264.698 75.7906C264.619 75.7569 264.555 75.7093 264.511 75.6615C264.419 75.5633 264.444 75.5135 264.446 75.6028L269.416 75.516C269.374 73.1102 267.602 70.8141 264.807 70.8629L264.894 75.833ZM254.38 74.8988C253.251 74.5858 252.842 74.2768 252.763 74.1962L249.206 77.6691C250.192 78.678 251.603 79.287 253.051 79.6888L254.38 74.8988ZM257.622 77.9696C257.613 77.4586 257.465 76.8602 257.047 76.3162C256.687 75.8476 256.254 75.5907 255.991 75.4564C255.51 75.2103 254.898 75.0381 254.361 74.8936L253.07 79.694C253.345 79.7679 253.53 79.822 253.657 79.8632C253.796 79.9083 253.794 79.9161 253.729 79.8828C253.676 79.8556 253.381 79.7032 253.106 79.3458C252.958 79.154 252.837 78.9294 252.757 78.6801C252.678 78.4364 252.655 78.2195 252.652 78.0564L257.622 77.9696ZM254.412 80.9072C254.787 80.9007 255.459 80.8582 256.114 80.5113C256.482 80.3164 256.898 79.9966 257.207 79.495C257.523 78.9837 257.631 78.4424 257.622 77.9697L252.652 78.0563C252.646 77.7181 252.724 77.2941 252.978 76.8833C253.226 76.4822 253.547 76.2462 253.787 76.1188C254.187 75.9069 254.473 75.9345 254.325 75.9371L254.412 80.9072ZM251.556 80.3457C252.497 80.6917 253.47 80.9237 254.412 80.9072L254.325 75.9371C254.222 75.9389 253.893 75.9086 253.272 75.6804L251.556 80.3457ZM248.912 79.0581C249.739 79.5822 250.637 80.0075 251.556 80.3457L253.272 75.6804C252.63 75.4444 252.059 75.1671 251.573 74.8593L248.912 79.0581ZM251.61 79.0348L251.657 79.0023L248.828 74.9151L248.781 74.9476L251.61 79.0348ZM253.09 80.2495L252.664 76.6953L247.728 77.2871L248.154 80.8413L253.09 80.2495ZM254.442 79.006C253.414 79.0239 252.452 78.7505 251.917 78.4242L249.327 82.6666C250.809 83.5715 252.739 84.0074 254.529 83.9761L254.442 79.006ZM256.526 77.7513C256.534 78.2122 256.393 78.4043 256.237 78.5351C256.018 78.7181 255.487 78.9878 254.442 79.006L254.529 83.9761C256.333 83.9446 258.085 83.4701 259.426 82.3476C260.83 81.1729 261.528 79.4983 261.496 77.6646L256.526 77.7513ZM256.418 77.2266C256.427 77.236 256.442 77.2521 256.462 77.3063C256.485 77.3697 256.521 77.5066 256.526 77.7514L261.496 77.6645C261.471 76.267 261.055 74.8606 259.974 73.7538L256.418 77.2266ZM254.737 76.5499C255.314 76.702 255.733 76.8547 256.026 76.9935C256.326 77.1355 256.42 77.2288 256.418 77.2266L259.974 73.7537C258.956 72.7109 257.466 72.1285 256.004 71.7431L254.737 76.5499ZM251.544 73.501C251.555 74.1279 251.776 74.7308 252.184 75.2218C252.533 75.6411 252.935 75.8774 253.181 76.0036C253.648 76.2424 254.222 76.4091 254.715 76.5439L256.026 71.7491C255.787 71.6837 255.624 71.6349 255.512 71.5976C255.391 71.5572 255.389 71.5494 255.446 71.5784C255.487 71.5993 255.747 71.7322 256.005 72.0428C256.146 72.2115 256.28 72.4256 256.376 72.6842C256.472 72.9432 256.51 73.1935 256.514 73.4142L251.544 73.501ZM254.628 70.6131C254.292 70.6189 253.623 70.6564 252.968 71.0229C252.596 71.2313 252.198 71.5637 251.911 72.0626C251.623 72.562 251.536 73.0735 251.544 73.5009L256.514 73.4143C256.519 73.7229 256.456 74.1312 256.219 74.5421C255.983 74.9526 255.663 75.2114 255.396 75.3606C254.953 75.6086 254.608 75.585 254.715 75.5832L254.628 70.6131ZM257.096 70.9726C256.249 70.7384 255.414 70.5993 254.628 70.6131L254.715 75.5832C254.878 75.5803 255.218 75.6107 255.771 75.7637L257.096 70.9726ZM259.402 71.878C258.714 71.5178 257.948 71.2139 257.111 70.9768L255.756 75.7594C256.287 75.91 256.733 76.0916 257.099 76.2829L259.402 71.878ZM258.239 71.5948L258.207 71.5953L258.294 76.5655L258.326 76.5649L258.239 71.5948ZM255.739 70.7842L255.797 74.1232L260.767 74.0365L260.709 70.6974L255.739 70.7842ZM254.661 72.5132C255.659 72.4958 256.546 72.6979 257.166 72.9898L259.282 68.4919C257.891 67.8374 256.236 67.514 254.574 67.543L254.661 72.5132ZM252.957 72.9733C253.187 72.777 253.668 72.5305 254.661 72.5132L254.574 67.543C252.814 67.5738 251.091 68.0306 249.73 69.1917L252.957 72.9733ZM252.641 73.7351C252.634 73.3426 252.731 73.1664 252.96 72.9701L249.726 69.195C248.333 70.3883 247.639 71.9988 247.67 73.8218L252.641 73.7351ZM252.763 74.1962C252.727 74.1595 252.709 74.13 252.694 74.0902C252.676 74.0444 252.644 73.9378 252.641 73.7351L247.67 73.8218C247.696 75.2648 248.171 76.6084 249.206 77.6691L252.763 74.1962ZM245.124 77.8742L246.149 74.9278L241.455 73.2944L240.429 76.2407L245.124 77.8742ZM244.886 74.5348L242.734 74.5724L242.82 79.5425L244.973 79.5049L244.886 74.5348ZM241.485 75.0092L242.612 77.918L247.247 76.1217L246.119 73.2129L241.485 75.0092ZM252.98 80.4042L248.355 69.4042L243.773 71.3307L248.398 82.3308L252.98 80.4042ZM246.522 83.926L250.732 83.8525L250.645 78.8824L246.435 78.9559L246.522 83.926ZM243.603 80.8504L244.151 82.313L248.806 80.569L248.258 79.1064L243.603 80.8504ZM241.923 82.5341L245.974 82.4634L245.887 77.4933L241.836 77.564L241.923 82.5341ZM243.739 82.3201L244.236 80.8393L239.523 79.2588L239.026 80.7397L243.739 82.3201ZM237.343 84.0862L241.426 84.015L241.339 79.0448L237.256 79.1161L237.343 84.0862ZM239.214 69.5637L234.976 80.7184L239.623 82.4839L243.861 71.3292L239.214 69.5637ZM246.02 67.8824L241.494 67.9614L241.581 72.9315L246.107 72.8525L246.02 67.8824ZM232.673 80.796C233.678 80.7785 234.689 80.413 235.452 79.6355C236.216 78.8561 236.564 77.8322 236.546 76.8179L231.576 76.9047C231.573 76.7291 231.64 76.4225 231.903 76.1544C232.164 75.8883 232.453 75.8282 232.587 75.8259L232.673 80.796ZM229.311 79.8713C230.363 80.4733 231.422 80.8179 232.673 80.796L232.587 75.8259C232.414 75.8289 232.232 75.8153 231.78 75.557L229.311 79.8713ZM231.913 79.7903L231.96 79.7579L229.131 75.6704L229.084 75.7029L231.913 79.7903ZM233.419 80.8804L232.963 77.4216L228.035 78.0716L228.491 81.5303L233.419 80.8804ZM233.74 79.3041C233.04 79.3163 232.529 79.1984 232.011 78.9554L229.899 83.4553C231.137 84.0365 232.405 84.299 233.827 84.2742L233.74 79.3041ZM235.197 78.8598C234.996 79.0552 234.607 79.289 233.74 79.3041L233.827 84.2742C235.618 84.243 237.337 83.7118 238.662 82.4242L235.197 78.8598ZM235.548 77.6902C235.56 78.4038 235.37 78.6921 235.197 78.8598L238.662 82.4242C240.015 81.109 240.549 79.3901 240.518 77.6034L235.548 77.6902ZM235.423 70.5532L235.548 77.6902L240.518 77.6034L240.393 70.4664L235.423 70.5532ZM233.995 73.0639L237.952 72.9949L237.865 68.0247L233.908 68.0938L233.995 73.0639ZM236.546 76.8179L236.437 70.5355L231.467 70.6222L231.576 76.9047L236.546 76.8179ZM230.12 81.7265L229.927 70.6491L224.957 70.7359L225.15 81.8132L230.12 81.7265ZM223.722 84.324L227.678 84.2549L227.592 79.2848L223.635 79.3538L223.722 84.324ZM221.128 78.116L221.193 81.8823L226.163 81.7955L226.098 78.0292L221.128 78.116ZM220.396 80.6146L223.656 80.5577L223.569 75.5875L220.309 75.6444L220.396 80.6146ZM222.903 81.8524L222.837 78.0861L217.867 78.1729L217.933 81.9392L222.903 81.8524ZM216.505 84.4499L220.461 84.3809L220.375 79.4108L216.418 79.4798L216.505 84.4499ZM213.783 70.9309L213.976 82.0082L218.946 81.9215L218.753 70.8441L213.783 70.9309ZM220.181 68.3334L216.225 68.4024L216.311 73.3726L220.268 73.3035L220.181 68.3334ZM222.774 74.4781L222.71 70.7751L217.74 70.8618L217.804 74.5648L222.774 74.4781ZM223.506 71.9795L220.246 72.0364L220.333 77.0065L223.593 76.9496L223.506 71.9795ZM221 70.8049L221.065 74.5079L226.035 74.4212L225.97 70.7182L221 70.8049ZM227.398 68.2074L223.442 68.2765L223.528 73.2466L227.485 73.1775L227.398 68.2074ZM205.04 73.5692L215.865 73.3803L215.779 68.4102L204.953 68.5991L205.04 73.5692ZM207.543 74.5697L207.482 71.0408L202.511 71.1276L202.573 74.6565L207.543 74.5697ZM208.449 72.0681L205.015 72.128L205.101 77.0982L208.536 77.0382L208.449 72.0681ZM211.109 82.0582L210.977 74.5098L206.007 74.5965L206.139 82.145L211.109 82.0582ZM212.538 79.5475L208.581 79.6165L208.668 84.5867L212.624 84.5176L212.538 79.5475ZM209.964 74.5275L210.096 82.0759L215.066 81.9892L214.934 74.4407L209.964 74.5275ZM215.84 71.9391L212.406 71.9991L212.492 76.9692L215.927 76.9092L215.84 71.9391ZM213.337 70.9386L213.398 74.4676L218.369 74.3808L218.307 70.8519L213.337 70.9386ZM207.207 82.1262L207.014 71.0489L202.044 71.1356L202.237 82.213L207.207 82.1262ZM200.809 84.7237L204.766 84.6547L204.679 79.6846L200.722 79.7536L200.809 84.7237ZM198.087 71.2047L198.281 82.2821L203.251 82.1953L203.057 71.1179L198.087 71.2047ZM204.486 68.6072L200.529 68.6763L200.616 73.6464L204.572 73.5773L204.486 68.6072ZM189.57 77.7846L187.813 81.4244L192.29 83.5854L194.047 79.9456L189.57 77.7846ZM195.879 81.2914L194.012 77.7148L189.605 80.0153L191.472 83.5919L195.879 81.2914ZM197.288 79.8928L193.632 79.9566L193.719 84.9267L197.375 84.8629L197.288 79.8928ZM197.866 70.5364L194.927 81.7476L199.736 83.0081L202.675 71.7969L197.866 70.5364ZM196.215 73.7232L200.314 73.6517L200.227 68.6816L196.128 68.7531L196.215 73.7232ZM197.305 77.5789L198.597 71.7785L193.745 70.6978L192.453 76.4982L197.305 77.5789ZM189.627 72.317L192.674 78.1841L197.085 75.893L194.038 70.0259L189.627 72.317ZM191.67 73.6601L191.876 73.6565L191.789 68.6864L191.583 68.69L191.67 73.6601ZM191.012 78.2178L193.869 72.2477L189.385 70.1024L186.528 76.0725L191.012 78.2178ZM184.871 72.0181L186.365 77.7698L191.176 76.5205L189.682 70.7687L184.871 72.0181ZM183.11 73.9519L187.32 73.8785L187.233 68.9084L183.024 68.9818L183.11 73.9519ZM188.776 81.8549L185.448 70.7531L180.686 72.1807L184.015 83.2825L188.776 81.8549ZM190.008 80.0198L186.352 80.0836L186.439 85.0537L190.095 84.9899L190.008 80.0198Z" fill="#3B1B89" style="fill:#3B1B89;fill:color(display-p3 0.2314 0.1059 0.5373);fill-opacity:1;" mask="url(#path-3-outside-2_163_3325)"/>
<defs>
<filter id="filter0_d_163_3325" x="0.00146484" y="0.235596" width="289.714" height="82.311" filterUnits="userSpaceOnUse" color-interpolation-filters="sRGB">
<feFlood flood-opacity="0" result="BackgroundImageFix"/>
<feColorMatrix in="SourceAlpha" type="matrix" values="0 0 0 0 0 0 0 0 0 0 0 0 0 0 0 0 0 0 127 0" result="hardAlpha"/>
<feOffset dy="6.21359"/>
<feComposite in2="hardAlpha" operator="out"/>
<feColorMatrix type="matrix" values="0 0 0 0 0.231373 0 0 0 0 0.105882 0 0 0 0 0.537255 0 0 0 1 0"/>
<feBlend mode="normal" in2="BackgroundImageFix" result="effect1_dropShadow_163_3325"/>
<feBlend mode="normal" in="SourceGraphic" in2="effect1_dropShadow_163_3325" result="shape"/>
</filter>
<linearGradient id="paint0_linear_163_3325" x1="142.461" y1="3.4515" x2="143.635" y2="70.707" gradientUnits="userSpaceOnUse">
<stop stop-color="#FAF9FD" style="stop-color:#FAF9FD;stop-color:color(display-p3 0.9804 0.9765 0.9922);stop-opacity:1;"/>
<stop offset="1" stop-color="#DE8E73" style="stop-color:#DE8E73;stop-color:color(display-p3 0.8706 0.5569 0.4510);stop-opacity:1;"/>
</linearGradient>
<linearGradient id="paint1_linear_163_3325" x1="233.033" y1="69.8035" x2="233.258" y2="82.6611" gradientUnits="userSpaceOnUse">
<stop stop-color="#FAF9FD" style="stop-color:#FAF9FD;stop-color:color(display-p3 0.9804 0.9765 0.9922);stop-opacity:1;"/>
<stop offset="1" stop-color="#DE8E73" style="stop-color:#DE8E73;stop-color:color(display-p3 0.8706 0.5569 0.4510);stop-opacity:1;"/>
</linearGradient>
</defs>
</svg>
