<svg xmlns="http://www.w3.org/2000/svg" fill="none" viewBox="0 0 424 214" width="424" height="214"><g clip-path="url(#a)"><path fill="#FFDF37" stroke="#fff" stroke-linejoin="round" stroke-width="4" d="M7.744 135.623a2 2 0 0 0 2.102 1.892l13.652-.715 3.82 72.897a2 2 0 0 0 2.102 1.892l390.118-20.445a2 2 0 0 0 1.893-2.102l-4.511-86.072a2 2 0 0 0-2.102-1.893l-9.181.481-5.05-96.37a2 2 0 0 0-2.102-1.893L3.895 23.975a2 2 0 0 0-1.892 2.101l5.74 109.547Z"/><path fill="#011627" fill-rule="evenodd" d="m410.686 107.78-6.707.352L29.51 127.757l.352 6.707 3.69 70.422 381.176-19.976-4.042-77.13ZM24.805 123.52l4.51 86.072 390.119-20.445-4.511-86.073L24.805 123.52Z" clip-rule="evenodd"/><path fill="#011627" d="m82.383 154.369 11.603 24.575 3.041-.159 9.668-32.03-3.309.173-8.052 27.793L82.487 147.8l-.626.033-10.186 28.128-10.734-26.809-3.399.179 12.65 30.86 3.042-.159 9.15-25.663ZM120.545 146.029l-3.131.164 1.634 31.17 3.131-.164-1.634-31.17ZM131.012 145.48l.149 2.85 12.702-.666 1.484 28.321 3.131-.165-1.484-28.32 12.702-.665-.15-2.85-28.534 1.495ZM196.762 142.034l-3.131.164.722 13.76-20.753 1.087-.721-13.759-3.131.164 1.634 31.17 3.13-.164-.76-14.516 20.752-1.088.761 14.516 3.131-.164-1.634-31.17ZM228.196 169.142c-1.923.101-3.89-.644-5.905-2.28l-.087.049.954 3.656c1.674 1.118 3.493 1.603 5.595 1.493 4.786-.251 7.616-3.569 7.355-8.557l-1.23-23.466-3.13.164 1.213 23.155c.177 3.384-1.679 5.624-4.765 5.786ZM261.002 141.972l8.248 16.178-14.938.783 6.69-16.961Zm1.426-3.602-2.996.157-12.936 32.157 3.265-.172 3.446-8.708 17.443-.915 4.247 8.306 3.399-.178-15.868-30.647ZM294.721 153.6c2.93 1.141 4.912 2.154 5.992 3.079 1.08.926 1.632 2.058 1.7 3.349.166 3.162-2.538 5.492-6.25 5.686-3.399.178-7.249-1.406-10.494-4.272l-.087.049 1.076 4.275c2.796 1.996 6.079 3.03 9.478 2.852 2.818-.148 5.101-1.071 6.851-2.77 1.752-1.655 2.584-3.753 2.456-6.202-.101-1.914-.771-3.576-2.051-4.893-1.28-1.317-3.544-2.583-6.751-3.888-3.067-1.179-5.049-2.191-6.037-3.077-.988-.886-1.536-1.929-1.604-3.22-.156-2.984 2.244-5.119 5.777-5.304 2.818-.148 5.463.696 8.39 2.641l.09-.004-.185-3.518c-2.729-1.598-5.271-2.18-8.313-2.02-2.683.14-4.835 1.012-6.5 2.618-1.665 1.605-2.412 3.609-2.286 6.013.098 1.87.764 3.443 2.041 4.716 1.235 1.319 3.454 2.587 6.707 3.89ZM331.595 166.849c4.562-.239 8.326-1.999 11.336-5.327s4.375-7.24 4.137-11.782c-.236-4.497-2.002-8.244-5.299-11.242-3.338-2.951-7.266-4.307-11.784-4.071-4.562.239-8.326 1.999-11.291 5.325-3.01 3.328-4.375 7.24-4.137 11.781.236 4.498 2.002 8.245 5.296 11.198 3.296 2.998 7.225 4.355 11.742 4.118Zm-1.592-29.52c3.623-.19 6.821.937 9.506 3.386 2.687 2.494 4.149 5.587 4.343 9.283.194 3.696-.94 6.881-3.354 9.597-2.414 2.717-5.432 4.17-9.01 4.357-3.623.19-6.732-.942-9.417-3.391-2.684-2.449-4.102-5.545-4.298-9.285-.194-3.696.895-6.879 3.309-9.595 2.369-2.714 5.343-4.165 8.921-4.352ZM385.063 132.166l-2.997.157 1.295 24.713-22.808-23.586-2.952.155 1.634 31.17 2.996-.157-1.397-26.673 24.753 25.628 1.118-.059-1.642-31.348Z"/><path fill="#011627" fill-rule="evenodd" d="m4 25.971 394.589-20.68 5.39 102.841L29.51 127.757l.352 6.707-20.12 1.054L4 25.971Zm71.677 73.277-30.149 1.58-3.136-59.839-17.381.911 3.955 75.473 47.53-2.491-.82-15.634Zm29.404-.676 33.797-1.771-2.23 14.928-47.96 2.514-3.955-75.473 47.638-2.497 3.778 14.614-33.475 1.755.836 15.957 27.789-1.457.695 13.262-27.789 1.456.876 16.712Zm88.607-65.728-18.347.961-28.971 77.415 17.917-.939 5.624-15.863 34.333-1.8 7.037 15.2 18.561-.973-36.154-74.001Zm4.463 46.147-13.085-27.965-10.519 29.202 23.604-1.237Zm94.037-27.524c.503 9.596-4.556 17.753-13.777 22.453l26.586 28.987-20.6 1.079-23.644-26.222-4.506.236 1.435 27.386-17.381.911-3.956-75.473 26.179-1.372c18.025-.944 28.879 7.028 29.664 22.015Zm-29.895-7.948c7.403-.388 12.446 3.456 12.78 9.818.344 6.577-4.365 11.148-11.983 11.547l-7.832.41-1.119-21.347 8.154-.428Zm117.066-20.19-17.06.894 2.362 43.014-39.806-41.051-16.738.877 3.956 75.473 17.059-.894-2.797-49.262 45.945 47.325 11.051-.58-3.972-75.796Z" clip-rule="evenodd"/></g><defs><clipPath id="a"><path fill="#fff" d="M0 .706h424v213H0z"/></clipPath></defs></svg>