<svg width="57" height="30" viewBox="0 0 57 30" fill="none" xmlns="http://www.w3.org/2000/svg">
<path fill-rule="evenodd" clip-rule="evenodd" d="M2.17391 0C0.973294 0 0 0.973294 0 2.17391V27.8261C0 29.0267 0.973296 30 2.17391 30H54.3478C55.5485 30 56.5217 29.0267 56.5217 27.8261V2.17391C56.5217 0.973294 55.5485 0 54.3478 0H2.17391ZM46.8906 12.5881C46.8906 13.9707 45.9254 14.936 44.4906 14.936C43.3167 14.936 42.2993 14.6229 41.0733 13.8925L40.995 13.9447L41.6472 19.6577C43.082 20.362 44.5428 20.7012 46.2906 20.7012C48.4819 20.7012 50.2298 20.1012 51.508 18.9012C52.7863 17.7012 53.4124 16.0577 53.4124 13.9968V2.23162H46.8906V12.5881ZM28.8777 14.675L25.8777 20.6228H19.8516L14.6864 2.23154H21.6255L23.9211 11.7533L28.7994 1.99676H29.1385L33.9907 11.7533L36.2864 2.23154H43.0429L37.8777 20.6228H31.8516L28.8777 14.675ZM16.7291 20.4925V14.6751H9.94645V2.23162H3.42471V20.4925H16.7291ZM53.3168 26.7811V27.6654H50.0533V22.1872H51.0394V26.7811H53.3168ZM43.6375 25.5521L44.6548 23.2434L45.6331 25.5521H43.6375ZM47.5818 27.6651L45.1714 22.1634H44.1931L41.7044 27.6651H42.7218L43.2853 26.3895H45.9775L46.5174 27.6651H47.5818ZM39.2368 22.1872V27.6967H38.7516L35.1751 23.635L35.1829 27.6654H34.2281V22.1872H35.1594L38.2899 25.7402L38.282 22.1872H39.2368ZM31.1968 27.6654V22.1872H30.2107V27.6654H31.1968ZM24.8808 24.7459H27.2286V27.0781C26.5008 27.5398 25.7886 27.7433 24.9512 27.7433C24.106 27.7433 23.4251 27.4851 22.9008 26.9764C22.3764 26.4677 22.1182 25.7868 22.1182 24.9494C22.1182 24.1198 22.4077 23.439 22.9791 22.9068C23.5504 22.3746 24.2782 22.1085 25.1625 22.1085C25.8591 22.1085 26.4538 22.2416 27.0877 22.5546V23.5955C26.3599 23.1885 25.7808 23.0242 25.1625 23.0242C24.5834 23.0242 24.0982 23.2042 23.7147 23.572C23.3234 23.9398 23.1277 24.3938 23.1277 24.9338C23.1277 25.5051 23.3077 25.9668 23.6599 26.319C24.0121 26.6712 24.4738 26.8512 25.0451 26.8512C25.5225 26.8512 25.9138 26.7729 26.2895 26.5851V25.552H24.8808V24.7459ZM19.4075 27.6654V22.1872H18.4214V27.6654H19.4075ZM13.4178 23.0246H12.6978V24.7698H13.3865C13.9891 24.7698 14.4117 24.4098 14.4117 23.8776C14.4117 23.3689 14.0126 23.0246 13.4178 23.0246ZM14.216 25.4037L16.1726 27.6654H14.9673L13.1908 25.568H12.7134V27.6654H11.7273V22.1872H13.4647C14.6543 22.1872 15.4056 22.8132 15.4056 23.8463C15.4056 24.5663 14.9595 25.1532 14.216 25.4037ZM4.12085 26.9531C4.66868 27.5009 5.34955 27.7748 6.17129 27.7748C6.99302 27.7748 7.68172 27.5009 8.23737 26.9453C8.79302 26.3974 9.06694 25.7244 9.06694 24.9183C9.06694 24.1122 8.79302 23.4392 8.2452 22.8914C7.68955 22.3514 7.00868 22.0774 6.18694 22.0774C5.37302 22.0774 4.69215 22.3514 4.1365 22.8992C3.58085 23.4548 3.29911 24.1279 3.29911 24.934C3.29911 25.7401 3.57302 26.4131 4.12085 26.9531ZM4.84868 23.5409C5.20085 23.1731 5.63911 22.9853 6.15563 22.9853C6.67998 22.9853 7.13389 23.1731 7.50172 23.5487C7.86955 23.9322 8.04955 24.394 8.04955 24.934C8.04955 25.474 7.86955 25.9279 7.50172 26.3035C7.13389 26.6792 6.69563 26.867 6.17129 26.867C5.64694 26.867 5.20868 26.6792 4.84868 26.3035C4.48868 25.9279 4.30868 25.4661 4.30868 24.9183C4.30868 24.3783 4.48868 23.9166 4.84868 23.5409Z" fill="#FAF9FD" style="fill:#FAF9FD;fill:color(display-p3 0.9804 0.9765 0.9922);fill-opacity:1;"/>
</svg>
