<svg xmlns="http://www.w3.org/2000/svg" viewBox="0 0 148 60"><path d="M34.1 15.5V.3l.3-.3h3.8l.3.3v15.2l-.3.3h-3.8l-.3-.3zm0 44.2V44.5l.3-.3h3.8l.3.3v15.2l-.3.3h-3.8l-.3-.3zM20.5 49h.5l4.9-4.9v-2.8l-.3-.3h-2.8l-4.9 4.9v.5l2.6 2.6zm-2.6-34.8v-.5l2.6-2.6h.5l4.9 4.9v2.8l-.4.4h-2.8l-4.8-5zm4.3 13.6H.8l-.3.3v3.8l.3.3h21.5l.3-.3v-3.8l-.4-.3zm125.2 0 .3.3v3.8l-.3.3h-21.8l-.3-.3 1.6-3.8.3-.3h20.2zM39.6 37.9h3.8l.3-.3v-9.5c0-3.3-2.7-6-6-6h-8.5l-.3.3v15.2l.3.3H33l.3-.3V26.1l.2-.2c1.2 0 2.3-.1 3.3 0 1.9 0 2.5 1.3 2.5 2.8v8.9l.3.3zm22.1-6.6-.3.3h-9.8l-.3.3c0 .6.6 2.5 3.2 2.5.9 0 1.9-.3 2.2-.9l.3-.3h3.8l.3.3c-.3 1.9-1.9 4.7-6.6 4.7-5.4 0-7.9-3.8-7.9-8.2s2.5-8.2 7.6-8.2 7.6 3.8 7.6 8.2v1.3zM57 28.1c0-.3-.3-2.5-2.8-2.5s-2.8 2.2-2.8 2.5l.3.3h5.1l.2-.3zm14.5 6c-.6 0-.9-.3-.9-.9v-7l.3-.3h3.5l.3-.3v-3.2l-.3-.3h-3.5l-.3-.3V19l-.3-.3h-3.8l-.3.3v2.8l-.3.3h-2.2l-.3.3v3.2l.3.3h2.2l.3.3v7c0 3.5 2.5 4.7 5.4 4.7h2.8l.3-.3v-3.2l-.3-.3h-2.9zm10.8 3.8h-3.8l-.3-.3V16.1l.3-.3h3.8l.3.3v21.5l-.3.3zM87 19.6h3.8l.3-.3v-3.2l-.3-.3H87l-.3.3v3.2l.3.3zm0 18.3h3.8l.3-.3V22.4l-.3-.3H87l-.3.3v15.2l.3.3zm18.7-21.8v3.2l-.3.3h-2.8c-.6 0-.9.3-.9.9v1.3l.3.3h3.2l.3.3v3.2l-.3.3H102l-.3.3v11.4l-.3.3h-3.8l-.3-.3V26.2l-.3-.3h-2.2l-.3-.3v-3.2l.3-.3H97l.3-.3v-1.3c0-3.5 2.5-4.7 5.4-4.7h2.8l.2.3zm4.7 27.2c4.4 0 5.7-1.9 7-5.1l5.1-12.6v-3.2l-.3-.3h-2.8l-.3.3-3.8 10.7h-.3l-4-10.7-.3-.3h-2.8l-.3.3v3.2l5.1 12.3v.3c-.3.9-.6 1.3-2.2 1.3h-1.6l-.3.3V43l.3.3h1.5z"/></svg>