<svg xmlns="http://www.w3.org/2000/svg" viewBox="0 0 93 24"><path d="M6 15.5V18l-6-6 1.3-1.3L6 15.5zM8.5 18H6l6 6 1.3-1.3L8.5 18zm14.2-4.8L24 12 12 0l-1.2 1.3L15.5 6h-2.9L9.3 2.7 8.1 3.9l2 2.1H8.7v9.3H18v-1.4l2.1 2.1 1.3-1.2-3.4-3.4V8.5l4.7 4.7zM6.6 5.4 5.4 6.6 6.7 8 8 6.7 6.6 5.4zM17.3 16 16 17.3l1.3 1.3 1.3-1.3-1.3-1.3zM3.9 8.1 2.7 9.3 6 12.6v-2.5l-2.1-2zm10 9.9h-2.5l3.3 3.3L16 20l-2.1-2zM91 18c-.8 0-1.4-.2-1.9-.7-.5-.4-.7-1-.7-1.8v-4.8H87V8.9h1.5l.3-2.4h1.7v2.4h2.2v1.8h-2.2v4.5c0 .2.1.5.3.7.2.2.4.3.7.3h1.3V18H91zm-8.7.1c-1.1 0-1.9-.3-2.6-.8-.7-.5-1.1-1.2-1.3-2h2.1c.1.3.3.6.6.7.3.2.7.3 1.1.3 1.1 0 1.7-.3 1.7-.9 0-.3-.2-.5-.5-.7-.4-.2-.9-.3-1.3-.4-.5-.1-1-.2-1.5-.4s-1-.5-1.3-.9c-.4-.4-.5-1-.5-1.7s.3-1.4.9-1.9c.6-.5 1.4-.8 2.5-.8s1.9.2 2.6.7c.6.5 1.1 1.2 1.2 1.9h-2.1c-.2-.6-.8-.9-1.6-.9-.9 0-1.4.3-1.4.9 0 .3.2.5.4.6.3.2.6.3 1 .3.4.1.8.2 1.3.3.4.1.8.3 1.3.5.4.2.7.5 1 .8.3.4.4.9.4 1.5 0 .8-.3 1.5-1 2-.9.7-1.8.9-3 .9m-6.4-8.5c-.7-.6-1.6-.9-2.8-.9-1 0-1.7.3-2.4.8-.6.5-1.1 1.2-1.3 2h2c.1-.3.3-.6.6-.7.3-.2.7-.3 1.1-.3.5 0 .9.1 1.3.4.3.3.5.7.5 1.2v.4h-2.3c-1.1 0-1.9.3-2.5.8-.6.5-.9 1.2-.9 2s.3 1.5.8 2c.6.5 1.3.8 2.2.8.6 0 1.1-.1 1.7-.4.4-.2.8-.5 1-.9h.1l.2 1.1h1.7V12c0-.9-.4-1.8-1-2.4m-1 4.9c0 .5-.2 1.1-.6 1.4-.4.4-.9.5-1.6.5-.5 0-.9-.1-1.1-.3-.3-.2-.4-.5-.4-.9 0-.8.5-1.2 1.6-1.2H75v.5zM64 18.2c-1.3 0-2.3-.4-3.1-1.3-.8-.8-1.2-2-1.2-3.5s.4-2.6 1.2-3.5c.8-.8 1.8-1.3 3.1-1.2 1.1 0 1.9.3 2.6.8.7.5 1.2 1.3 1.4 2.1h-2c-.4-.8-1.2-1.2-2.1-1.2-.6 0-1.3.3-1.7.8-.4.5-.6 1.2-.6 2.1 0 .9.2 1.6.6 2.2.4.5 1 .8 1.7.8.9 0 1.7-.4 2.1-1.2h2c-.2.8-.7 1.6-1.4 2.2-.6.6-1.5.9-2.6.9m-11.6 3.2 1.4-3.4-3.7-9.1h2.1l2.5 6.4h.1l2.5-6.4h2.1l-5 12.5h-2zM48.3 9.6c-.7-.6-1.6-.9-2.8-.9-.9 0-1.7.3-2.4.8-.6.5-1.1 1.2-1.3 2h2c.1-.3.3-.6.6-.7.3-.2.7-.3 1.1-.3.6 0 1 .1 1.3.4.3.3.5.7.5 1.2v.4H45c-1.1 0-1.9.3-2.5.8-.6.5-.9 1.2-.9 2s.3 1.5.8 2c.6.5 1.3.8 2.2.8.6 0 1.1-.1 1.7-.4.4-.2.8-.5 1-.9h.1l.2 1.1h1.7V12c0-1-.4-1.8-1-2.4m-1 4.9c0 .5-.2 1.1-.6 1.4-.4.4-.9.5-1.6.5-.5 0-.9-.1-1.2-.3-.3-.2-.4-.5-.4-.9 0-.8.5-1.2 1.5-1.2h2.2v.5zm-10.1-1 .9-.3.9-.6c.3-.3.6-.7.8-1.1.2-.5.3-1 .3-1.6 0-1.1-.4-2.1-1.1-2.7-.7-.7-1.7-1-2.8-1h-5v12h2.1v-4.5h1.6l3.1 4.5h2.4l-3.2-4.7zm-4-1.9V7.9h2.7c.6 0 1.1.2 1.4.5.4.3.5.8.5 1.4 0 .6-.2 1.1-.5 1.4-.4.3-.9.5-1.4.5h-2.7z"/></svg>