<svg xmlns="http://www.w3.org/2000/svg" viewBox="0 0 90.9 20"><path d="m56.5 12.9-6.7-8.7h-1.7v11.6h1.7V6.9l6.9 8.9h1.5V4.2h-1.7v8.7zm-16.9-2.2h6V9.2h-6V5.7h6.8V4.2h-8.5v11.6h8.6v-1.5h-6.9v-3.6zm-7.1-1.5c-2.3-.6-3-1-3-2.1 0-1 .9-1.6 2.1-1.6 1.2 0 2.3.4 3.2 1.2l.9-1.3c-1.1-.9-2.5-1.4-4-1.4-2.3 0-3.9 1.4-3.9 3.3 0 2.1 1.4 2.8 3.9 3.4 2.2.5 2.9 1 2.9 2s-.9 1.7-2.3 1.7-2.7-.5-3.8-1.5l-1 1.2c1.3 1.1 3 1.8 4.7 1.8 2.5 0 4.1-1.3 4.1-3.4-.1-1.7-1.1-2.6-3.8-3.3zm56.4-5-3.5 5.5L82 4.2h-2l4.6 7v4.6h1.8v-4.6l4.6-7h-2.1zM59.6 5.8h3.8v10h1.8v-10H69V4.2h-9.4v1.6zM77 11.3c1.8-.5 2.7-1.7 2.7-3.5 0-2.2-1.6-3.6-4.3-3.6h-5.2v11.6H72v-4.2h2.9l2.9 4.2h2l-3.2-4.5h.4zm-5-1.2V5.7h3.3c1.7 0 2.7.8 2.7 2.2 0 1.4-1.1 2.2-2.7 2.2H72zM13.2 1c-.6-1-1.9-1.3-2.9-.7-.3.2-.6.4-.8.7l-3 5.1c4.6 2.3 7.7 6.9 8.1 12.1h-2.1c-.4-4.4-3-8.4-7-10.3l-2.8 4.8c2.3 1 3.8 3.1 4.2 5.5H2.1c-.2 0-.3-.2-.3-.4v-.1l1.3-2.3c-.5-.4-1-.7-1.5-.9L.3 16.8c-.6 1-.2 2.3.7 2.8.3.2.7.3 1 .3h6.6c.2-3.1-1.1-6.1-3.6-7.9l1.1-1.8c3.2 2.2 5 5.8 4.7 9.7h5.6c.3-5.8-2.6-11.3-7.4-14.5l2-3.5c.1-.2.3-.2.5-.1s9.2 15.8 9.4 16c.1.2 0 .4-.1.5H18.4V20h2.2c1.2 0 2.1-.9 2.1-2.1 0-.4-.1-.7-.3-1L13.2 1z"/></svg>