<svg xmlns="http://www.w3.org/2000/svg" viewBox="0 0 246 40"><path d="M20.3 11.1c.2-1 .3-1.9.4-2 .1-.2.4-.2 3.1-.3V4.7l-2.4-.1.4-2.2c.2-1.2.4-2.2.4-2.3 0-.1-1-.1-2.1-.1H18l-.1.5c0 .3-.2 1.3-.4 2.3l-.3 1.8h-2.3c-1.8 0-2.3 0-2.3-.2 0-.1.1-1.1.3-2.2.2-1.1.3-2 .3-2.1 0-.2-4.1-.1-4.2.1 0 .2-.7 4.1-.7 4.3 0 .1-.8.1-1.8.1H4.7v4.2h1.4c1.6 0 1.5-.3 1 2.6l-.4 2.1h-3l-.1.5c-.1.3-.1 1.2 0 2l.1 1.5h2.4L6 18c-.2 1.4-.6 3.5-.7 3.8-.1.2-.3.3-1.7.3h8.2c-2.1 0-2.3 0-2.2-.3 0-.2.1-.6.2-1s.2-1.3.4-2l.3-1.4h2.3c2.3 0 2.3 0 2.2.4-.1.7-.4 2.2-.5 3-.2 1.1-.1 1.2-1.6 1.3h5.6l.1-.5c.1-.3.2-1.3.4-2.2.1-.9.3-1.7.4-1.8 0 0 1.4-.1 3.5-.1v-4.2h-2.8l.1-.4c-.2.1-.1-.9.1-1.8zm-3.9-1.5c-.1.5-.3 1.6-.4 2.4l-.3 1.6h-2.4c-2.1 0-2.4 0-2.4-.2 0-.3.6-4.2.7-4.5.1-.2.7-.2 2.4-.2h2.4v.9zM30 17.7l10.7-.1v-4H22.6v4.2c2-.1 4.6-.1 7.4-.1zm-11.7 4.6H1.9l-.1 1.9v2s8.4.1 18.6.1H39v-4H18.3zM.7 35.2v-4h37.2v4h-3.6l-.2 1.2c-.1.7-.3 1.7-.4 2.4l-.2 1.2h-2.1c-1.5 0-2.1-.1-2.1-.2s.1-1.1.3-2.2c.2-1.1.3-2.1.3-2.2 0-.2-.6-.2-2.3-.2h-2.3l-.3 1.4c-.1.7-.3 1.7-.4 2.1v.3c-.1.4-.1.7-.2.9 0 .1-.4.1-1.4.1h-1c-.8 0-1.2 0-1.3-.2-.2-.2-.1-.6.1-1.6 0-.2.1-.4.1-.7 0-.3.1-.5.1-.7.2-.9.3-1.3.1-1.5-.2-.2-.7-.2-1.6-.2h-.7c-1.4 0-2.5.1-2.5.1 0 .1-.2 1.1-.4 2.4l-.6 2.4h-2.1c-2.1 0-2.1 0-2-.4.1-.4.7-4.2.7-4.4H9.5c-1.9 0-2.4.1-2.4.3 0 .1-.2 1.2-.4 2.4L6.4 40h-2c-1.8 0-2 0-2-.3 0-.2.2-1.2.3-2.3.2-1.1.3-2 .3-2.1 0-.1-.5-.1-1.2-.1H.7zM31.3 8.8h10.5v-4h-1.5c-.4 0-.6 0-.7-.1-.2-.2-.1-.6.1-1.8 0-.2.1-.3.1-.5.2-1 .3-2 .3-2.1 0-.2-.5-.2-2.1-.2h-2.1l-.2.9c-.1.5-.3 1.4-.4 2.1 0 .2 0 .3-.1.5-.1.6-.1 1-.3 1.1-.2.2-.7.2-1.6.2h-.6c-1.7 0-2.3-.1-2.3-.2s.1-1.1.3-2.1c.3-.4.3-.6.3-.8.2-1 .3-1.4.1-1.6-.1-.2-.5-.2-1.3-.2h-1.1c-.8 0-1.2 0-1.4.2-.2.2-.3.7-.5 1.8 0 .2-.1.4-.1.6l-.4 2c-.1.1-1.2.1-2.5 0v4.1c1.6.1 3.9.1 7.5.1zm21.2 2.6h3l4.2 12.4L64 11.4h3l-5.7 15.7H58l-5.5-15.7zm16.1 0h12v2.4h-9.1v4.1h8.4v2.2h-8.4v4.6h9.2v2.4H68.6V11.4zm13.1 0h13.5v2.4h-5.3v13.3H87V13.8h-5.3v-2.4zM99 21.9c0 .6.1 1.1.3 1.5.2.4.5.8.9 1.1.4.3.8.5 1.3.6.5.1 1.1.2 1.7.2.6 0 1.2-.1 1.6-.2.5-.1.8-.3 1.1-.6s.5-.5.6-.7c.1-.3.2-.6.2-.9 0-.6-.1-1-.4-1.3-.3-.3-.6-.5-.9-.6-.6-.2-1.3-.4-2.1-.6-.8-.2-1.7-.4-2.9-.7-.7-.2-1.3-.4-1.8-.7-.5-.3-.8-.6-1.1-1-.3-.4-.5-.7-.6-1.1-.1-.4-.2-.8-.2-1.2 0-.8.2-1.5.5-2 .4-.6.8-1.1 1.4-1.5.6-.4 1.2-.7 2-.8.7-.2 1.5-.3 2.2-.3.9 0 1.7.1 2.5.3.8.2 1.5.5 2 .9.6.4 1.1 1 1.4 1.6.3.6.5 1.3.5 2.2h-2.9c-.1-1-.4-1.7-1.1-2.1-.7-.4-1.5-.6-2.5-.6-.3 0-.7 0-1.1.1-.4.1-.7.2-1 .3-.3.1-.5.4-.7.6-.2.3-.3.6-.3 1 0 .6.2 1 .5 1.3.4.3.9.5 1.4.7.1 0 .3.1.7.2.4.1.9.2 1.4.4.5.1 1 .3 1.5.4.5.1.9.2 1.1.3.5.2 1 .4 1.4.7.4.3.7.6 1 1 .3.4.5.7.6 1.1.1.4.2.8.2 1.2 0 .9-.2 1.6-.6 2.3-.4.6-.9 1.1-1.5 1.5-.6.4-1.3.7-2.1.9-.8.2-1.6.3-2.4.3-.9 0-1.8-.1-2.7-.3-.8-.2-1.6-.6-2.2-1-.6-.5-1.1-1-1.5-1.7-.4-.7-.6-1.6-.6-2.5H99zm18.1-10.5h3l3 12 3.4-12h3l3.3 12 3.1-12h3l-4.6 15.7h-3l-3.3-12-3.4 12h-3l-4.5-15.7zm23.6 0h2.9v6.3h7.6v-6.3h2.9v15.7h-2.9V20h-7.6v7.1h-2.9V11.4zm24 1.9c-.9 0-1.7.2-2.3.5-.6.3-1.2.8-1.6 1.4-.4.6-.7 1.2-.9 1.9-.2.7-.3 1.5-.3 2.2 0 .7.1 1.5.3 2.2.2.7.5 1.4.9 1.9.4.6.9 1 1.6 1.3.7.3 1.4.5 2.3.5.9 0 1.6-.2 2.3-.5.7-.3 1.2-.8 1.6-1.3.4-.6.7-1.2.9-1.9.2-.7.3-1.5.3-2.2 0-.7-.1-1.5-.3-2.2-.2-.7-.5-1.4-.9-1.9-.4-.6-.9-1-1.6-1.4-.6-.3-1.4-.5-2.3-.5zm0-2.2c1.2 0 2.4.2 3.3.7 1 .4 1.8 1 2.5 1.8.7.7 1.2 1.6 1.6 2.6.4 1 .6 2.1.6 3.2s-.2 2.2-.6 3.2c-.4 1-.9 1.9-1.6 2.6-.7.7-1.5 1.3-2.5 1.8-1 .4-2.1.6-3.3.6-1.2 0-2.4-.2-3.4-.6-1-.4-1.8-1-2.5-1.8-.7-.7-1.2-1.6-1.6-2.6-.4-1-.5-2.1-.5-3.2s.2-2.2.5-3.2c.4-1 .9-1.9 1.6-2.6.7-.7 1.5-1.3 2.5-1.8 1.1-.5 2.2-.7 3.4-.7zm28.4 5.3c-.1-.5-.3-.9-.5-1.3s-.5-.7-.8-1c-.3-.3-.7-.5-1.2-.6-.5-.2-1-.2-1.6-.2-.9 0-1.7.2-2.3.5-.6.3-1.2.8-1.6 1.4-.4.6-.7 1.2-.9 1.9-.2.7-.3 1.5-.3 2.2 0 .7.1 1.5.3 2.2.2.7.5 1.4.9 1.9.4.6.9 1 1.6 1.3.7.3 1.4.5 2.3.5.7 0 1.2-.1 1.7-.3.5-.2.9-.5 1.3-.9s.6-.8.8-1.3c.2-.5.3-1 .4-1.6h2.8c-.1.9-.3 1.8-.7 2.6-.4.8-.8 1.5-1.5 2-.6.6-1.4 1-2.2 1.3-.8.3-1.8.5-2.8.5-1.2 0-2.4-.2-3.4-.6-1-.4-1.8-1-2.5-1.8-.7-.7-1.2-1.6-1.6-2.6-.4-1-.5-2.1-.5-3.2s.2-2.2.5-3.2c.4-1 .9-1.9 1.6-2.6.7-.7 1.5-1.3 2.5-1.8 1-.4 2.1-.7 3.4-.7.9 0 1.8.1 2.6.4.8.2 1.5.6 2.2 1.1.6.5 1.2 1 1.5 1.7.4.7.6 1.4.7 2.3h-2.7zm12.7-3.1c-.9 0-1.7.2-2.3.5-.6.3-1.2.8-1.6 1.4-.4.6-.7 1.2-.9 1.9-.2.7-.3 1.5-.3 2.2 0 .7.1 1.5.3 2.2.2.7.5 1.4.9 1.9.4.6.9 1 1.6 1.3.7.3 1.4.5 2.3.5.9 0 1.6-.2 2.3-.5.7-.3 1.2-.8 1.6-1.3.4-.6.7-1.2.9-1.9.2-.7.3-1.5.3-2.2 0-.7-.1-1.5-.3-2.2-.2-.7-.5-1.4-.9-1.9-.4-.6-.9-1-1.6-1.4-.7-.3-1.4-.5-2.3-.5zm0-2.2c1.2 0 2.4.2 3.3.7 1 .4 1.8 1 2.5 1.8.7.7 1.2 1.6 1.6 2.6.4 1 .6 2.1.6 3.2s-.2 2.2-.6 3.2c-.4 1-.9 1.9-1.6 2.6-.7.7-1.5 1.3-2.5 1.8-1 .4-2.1.6-3.3.6-1.2 0-2.4-.2-3.4-.6-1-.4-1.8-1-2.5-1.8-.7-.7-1.2-1.6-1.6-2.6-.4-1-.5-2.1-.5-3.2s.2-2.2.5-3.2c.4-1 .9-1.9 1.6-2.6.7-.7 1.5-1.3 2.5-1.8s2.1-.7 3.4-.7zm10.6.3h6.9c1.3 0 2.4.2 3.3.6.9.4 1.7 1 2.3 1.7.6.7 1 1.5 1.3 2.5.3 1 .4 2 .4 3.1s-.1 2.1-.4 3.1c-.3 1-.7 1.8-1.3 2.5-.6.7-1.4 1.3-2.3 1.7-.9.4-2 .6-3.3.6h-6.9V11.4zm2.9 13.5h2.9c1.1 0 2.1-.1 2.8-.4.7-.3 1.3-.7 1.7-1.2.4-.5.7-1.1.8-1.8.2-.7.2-1.4.2-2.2 0-.8-.1-1.5-.2-2.2-.1-.7-.4-1.3-.8-1.8s-1-.9-1.7-1.2c-.7-.3-1.6-.4-2.8-.4h-2.9v11.2zm13.9-13.5h12v2.4h-9.1v4.1h8.4v2.2h-8.4v4.6h9.2v2.4h-12.2V11.4z"/></svg>